<?xml version="1.0" encoding="UTF-8" standalone="no"?>
<!-- Created with Inkscape (http://www.inkscape.org/) -->

<svg
   xmlns:dc="http://purl.org/dc/elements/1.1/"
   xmlns:cc="http://creativecommons.org/ns#"
   xmlns:rdf="http://www.w3.org/1999/02/22-rdf-syntax-ns#"
   xmlns:svg="http://www.w3.org/2000/svg"
   xmlns="http://www.w3.org/2000/svg"
   xmlns:sodipodi="http://sodipodi.sourceforge.net/DTD/sodipodi-0.dtd"
   xmlns:inkscape="http://www.inkscape.org/namespaces/inkscape"
   width="343pt"
   height="340pt"
   id="svg3177"
   version="1.1"
   inkscape:version="0.48.1 "
   sodipodi:docname="LogoGeoinquiets.svg"
   inkscape:export-filename="C:\Users\oscar\Desktop\geoinquiets\LogoGeoinquiets_2048.png"
   inkscape:export-xdpi="866.96002"
   inkscape:export-ydpi="866.96002">
  <defs
     id="defs3179" />
  <sodipodi:namedview
     pagecolor="#ffffff"
     bordercolor="#666666"
     borderopacity="1.0"
     inkscape:pageopacity="0.0"
     inkscape:pageshadow="2"
     inkscape:zoom="0.8"
     inkscape:cx="165"
     inkscape:cy="210"
     inkscape:document-units="pt"
     inkscape:current-layer="layer1"
     id="namedview3181"
     showgrid="false"
     inkscape:window-width="1600"
     inkscape:window-height="833"
     inkscape:window-x="-8"
     inkscape:window-y="-8"
     inkscape:window-maximized="1" />
  <metadata
     id="metadata3183">
    <rdf:RDF>
      <cc:Work
         rdf:about="">
        <dc:format>image/svg+xml</dc:format>
        <dc:type
           rdf:resource="http://purl.org/dc/dcmitype/StillImage" />
        <dc:title></dc:title>
      </cc:Work>
    </rdf:RDF>
  </metadata>
  <g
     inkscape:label="Layer 1"
     inkscape:groupmode="layer"
     id="layer1">
    <g
       id="g18814"
       transform="matrix(0.79987854,0,0,0.79987759,-29.531017,-145.72005)"
       inkscape:export-xdpi="113.33296"
       inkscape:export-ydpi="113.33296">
      <g
         transform="translate(5.0716265,25.358132)"
         id="fons">
        <circle
           style="fill:#fcf1c9"
           sodipodi:ry="263.62201"
           sodipodi:rx="263.62201"
           sodipodi:cy="422.36099"
           sodipodi:cx="297.638"
           d="m 561.26001,422.36099 c 0,145.59442 -118.02759,263.62201 -263.62201,263.62201 -145.59441,0 -263.622009,-118.02759 -263.622009,-263.62201 0,-145.59441 118.027599,-263.62201 263.622009,-263.62201 145.59442,0 263.62201,118.0276 263.62201,263.62201 z"
           id="circle2516"
           r="263.62201"
           cy="422.36099"
           cx="297.638" />
      </g>
      <path
         connector-curvature="0"
         d="m 277.96363,710.61713 c -66.594,-8.064 -116.927,-32.23 -162.537,-78.044 -18.268004,-18.349 -31.238004,-35.297 -43.289004,-56.564 -16.733,-29.532 -28.255,-65.798 -32.011,-100.751 -1.393,-12.967 -1.384999,-43.243 0.015,-55.248 5.667001,-48.604 22.493001,-91.837 49.961,-128.377 45.628004,-60.693 107.674004,-96.896 181.837004,-106.099 21.487,-2.666 56.893,-1.514 79.164,2.577 10.86,1.995 31.834,7.86 42.867,11.99 17.857,6.683 32.08,13.836 53.452,26.883 24.954,15.233 59.068,50.03 78.492,80.06 24.634,38.085 38.945,85.446 40.307,133.377 2.096,73.862 -25.827,142.883 -78.576,194.227 -23.923,23.283 -43.706,37.417 -70.865,50.625 -23.93,11.639 -47.631,18.997 -75.628,23.479 -14.677,2.351 -50.456,3.407 -63.189,1.865 z m 103.115,-99.794 c 40.293,-17.552 77.204,-58.515 92.054,-102.158 3.839,-11.284 3.563,-14.147 -0.536,-5.537 -3.314,6.964 -3.317,6.966 -4.438,4.168 -0.617,-1.539 -1.417,-6.635 -1.776,-11.322 l -0.655,-8.522 -7.556,-5.416 c -4.156,-2.979 -11.504,-8.248 -16.327,-11.709 -4.825,-3.461 -10.755,-6.847 -13.178,-7.525 -6.012,-1.684 -13.024,-9.042 -13.965,-14.65 -0.979,-5.84 -9.052,-9.542 -11.368,-5.213 -1.675,3.129 -3.268,1.234 -2.579,-3.067 1.14,-7.133 -2.4,-8 -12.215,-2.993 -3.857,1.969 -4.233,2.471 -3.641,4.86 0.363,1.466 0.989,4.702 1.391,7.191 0.931,5.779 4.631,10.608 11.022,14.385 3.831,2.265 5.315,3.841 6.14,6.519 2.812,9.137 13.32,17.868 21.506,17.868 3.022,0 3.253,0.212 2.688,2.467 -0.584,2.326 0.083,2.798 11.75,8.313 9.104,4.304 12.973,6.694 14.653,9.057 1.567,2.202 1.963,3.531 1.261,4.234 -0.704,0.703 -1.559,0.21 -2.726,-1.569 -0.935,-1.428 -2.431,-2.598 -3.326,-2.601 -0.895,-0.004 -2.941,-0.692 -4.547,-1.53 -3.631,-1.894 -5.001,-1.397 -7.038,2.547 -2.296,4.438 -1.586,7.969 1.997,9.939 3.695,2.032 4.264,5.162 1.563,8.597 -1.134,1.44 -2.078,3.342 -2.101,4.227 -0.044,1.779 -5.604,8.734 -6.371,7.969 -0.264,-0.265 0.17,-2.924 0.964,-5.91 0.794,-2.984 1.444,-6.547 1.446,-7.916 0.004,-3.882 -5.571,-12.673 -9.701,-15.3 -2.042,-1.297 -4.607,-3.359 -5.702,-4.584 -1.095,-1.225 -3.557,-3.03 -5.473,-4.014 -1.916,-0.984 -4.581,-2.965 -5.925,-4.404 -1.343,-1.439 -4.701,-3.275 -7.463,-4.08 -3.77,-1.101 -7.752,-3.77 -15.969,-10.705 -10.327,-8.718 -11.075,-9.603 -13.241,-15.674 -2.795,-7.837 -5.637,-10.97 -12.045,-13.274 -4.438,-1.596 -5.167,-1.619 -7.816,-0.248 -1.607,0.832 -3.671,2.654 -4.586,4.051 -1.003,1.532 -2.592,2.539 -4.007,2.539 -1.454,0 -4.325,1.89 -7.562,4.977 -3.144,3 -6.12,4.978 -7.491,4.978 -1.252,0 -4.636,-1.226 -7.52,-2.721 -4.06,-2.107 -6.648,-2.725 -11.478,-2.737 -5.769,-0.016 -6.5,0.24 -9.775,3.413 -3.963,3.839 -4.378,6.39 -2.092,12.87 1.379,3.907 1.342,4.21 -0.746,6.187 -2.997,2.839 -12.831,7.739 -17.375,8.661 -3.385,0.687 -4.391,1.759 -10.931,11.678 -3.962,6.008 -7.204,11.597 -7.203,12.417 0,0.821 1.094,3.404 2.429,5.742 l 2.429,4.248 -3.442,3.134 c -1.897,1.727 -3.884,4.777 -4.429,6.796 -0.798,2.967 -1.728,3.956 -4.885,5.197 -2.538,0.996 -4.763,2.9 -6.373,5.452 l -2.474,3.92 -10.795,1.06 c -11.377,1.117 -20.165,3.648 -25.256,7.274 -2.931,2.088 -3.142,2.105 -4.997,0.426 -1.065,-0.964 -1.937,-2.802 -1.937,-4.084 0,-3.075 -6.569,-10.311 -9.32,-10.265 -1.168,0.019 -3.243,0.675 -4.611,1.458 -1.369,0.782 -5.115,1.438 -8.326,1.458 -5.584,0.032 -5.81,-0.063 -5.207,-2.205 0.347,-1.231 0.903,-4.943 1.235,-8.247 0.603,-6.002 0.599,-6.013 -3.003,-8.761 -2.003,-1.527 -3.607,-3.627 -3.607,-4.721 0,-1.082 1.293,-4.53 2.874,-7.662 6.243,-12.373 8.392,-27.626 5.773,-40.995 -1.678,-8.569 -1.433,-9.778 2.16,-10.626 1.445,-0.341 3.648,-1.547 4.896,-2.682 2.604,-2.366 5.713,-2.484 17.633,-0.674 4.379,0.666 13.558,1.313 20.399,1.438 6.841,0.124 14.805,0.799 17.696,1.497 10.211,2.469 13.801,-1.424 14.779,-16.025 0.481,-7.17 1.06,-9.776 2.535,-11.404 2.766,-3.052 1.536,-6.453 -4.816,-13.315 -3.728,-4.026 -5.831,-7.346 -6.867,-10.836 -1.391,-4.683 -1.785,-5.108 -5.693,-6.133 -11.63,-3.048 -14.733,-4.225 -15.647,-5.933 -1.572,-2.938 -1.261,-3.448 3.513,-5.768 5.259,-2.556 8.295,-2.757 10.978,-0.728 2.373,1.796 10.431,1.976 12.586,0.28 2.681,-2.108 2.992,-5.183 0.806,-7.963 -1.104,-1.404 -2.008,-3.042 -2.008,-3.641 0,-1.805 2.423,-1.222 3.75,0.904 1.016,1.628 2.32,1.991 7.169,1.991 4.914,0 6.11,-0.341 6.995,-1.996 0.587,-1.098 3.679,-3.313 6.872,-4.925 5.813,-2.936 7.013,-4.606 7.043,-9.807 0.016,-2.794 5.69,-5.583 15.56,-7.648 3.599,-0.753 6.799,-1.625 7.11,-1.936 0.311,-0.311 -0.025,-1.671 -0.75,-3.022 -1.169,-2.186 -1.041,-2.873 1.164,-6.22 1.364,-2.069 2.771,-4.945 3.13,-6.39 0.357,-1.446 1.293,-2.875 2.079,-3.177 1.129,-0.433 1.313,0.163 0.88,2.841 -0.48,2.96 -0.213,3.543 2.104,4.6 2.307,1.052 2.923,0.941 4.708,-0.845 1.861,-1.861 1.935,-2.387 0.776,-5.588 -1.827,-5.057 -0.114,-6.949 5.525,-6.104 3.703,0.555 4.335,0.346 5.826,-1.933 1.666,-2.542 1.693,-2.546 5.233,-0.857 l 3.559,1.697 3.397,-3.818 c 1.868,-2.1 3.397,-4.424 3.397,-5.164 0,-1.988 -3.96,-12.222 -6.196,-16.013 -1.068,-1.811 -1.736,-3.858 -1.487,-4.552 0.25,-0.694 -0.22,-2.433 -1.042,-3.865 -1.022,-1.777 -1.282,-3.751 -0.818,-6.221 0.69,-3.683 2.881,-4.865 3.934,-2.124 1.046,2.725 3.486,1.55 6.719,-3.235 4.018,-5.945 3.764,-5.66 4.434,-4.99 0.312,0.312 0,2.461 -0.694,4.775 -1.214,4.053 -1.16,4.296 1.424,6.52 1.477,1.271 2.684,2.511 2.684,2.757 0,0.245 -1.566,1.372 -3.482,2.503 -3.381,1.995 -3.482,2.233 -3.482,8.191 0,5.724 0.234,6.359 3.479,9.42 1.914,1.806 4.472,3.427 5.682,3.602 1.365,0.197 2.414,1.229 2.763,2.713 0.308,1.316 1.327,2.878 2.264,3.469 1.74,1.098 1.737,1.099 11.829,-3.804 4.217,-2.049 6.699,-1.547 11.797,2.386 5.329,4.109 5.957,4.332 7.775,2.748 0.923,-0.804 4.365,-2.448 7.648,-3.655 3.285,-1.207 8.21,-3.454 10.946,-4.994 8.003,-4.504 9.039,-4.589 13.048,-1.067 1.944,1.707 4.792,3.355 6.328,3.662 1.536,0.308 4.953,2.753 7.593,5.434 9.355,9.5 7.482,4.406 -2.514,-6.841 -7.852,-8.832 -30.98,-28.099 -33.732,-28.099 -0.623,0 -1.398,1.061 -1.725,2.356 -0.505,2.013 -1.366,2.437 -5.904,2.905 -7.895,0.815 -9.815,2.135 -9.144,6.281 0.531,3.267 0.438,3.385 -2.621,3.334 -2.855,-0.049 -3.446,-0.62 -5.922,-5.724 -1.513,-3.118 -2.744,-6.267 -2.736,-6.995 0.007,-0.729 -1.554,-3.239 -3.47,-5.577 -1.916,-2.338 -3.483,-4.695 -3.483,-5.239 0,-0.543 -0.869,-1.774 -1.933,-2.737 -1.064,-0.963 -2.209,-3.001 -2.545,-4.53 -0.891,-4.056 -3.099,-5.582 -11.443,-7.913 -28.609,-7.99 -65.016,-8.546 -93.043,-1.42 -8.586,2.184 -23.483,7.397 -26.244,9.188 l -2.361,1.53 2.751,2.366 c 2.323,2 3.617,2.317 8.332,2.045 l 5.581,-0.321 v 4.479 c 0,3.81 -0.316,4.524 -2.115,4.781 -2.782,0.397 -8.699,7.76 -7.903,9.834 0.476,1.242 1.528,1.449 4.968,0.978 4.083,-0.56 4.53,-0.383 6.908,2.736 1.398,1.833 3.244,5.066 4.1,7.184 1.074,2.653 3.097,4.859 6.507,7.093 3.195,2.093 4.949,3.946 4.949,5.227 0,1.09 -0.448,1.982 -0.995,1.982 -1.788,0 -1.043,2.89 1.03,4 1.666,0.892 1.91,1.695 1.38,4.525 -1.105,5.894 2.169,7.757 9.175,5.223 2.821,-1.021 3.547,-0.931 5.295,0.652 4.076,3.688 1.4,8.739 -5.729,10.82 -3.897,1.137 -4.683,1.766 -4.683,3.75 0,1.962 0.572,2.439 3.234,2.696 1.779,0.171 3.231,0.619 3.227,0.995 -0.004,0.376 -1.771,1.691 -3.929,2.923 -3.078,1.758 -5.482,2.24 -11.187,2.245 -3.996,0.003 -11.655,0.296 -17.021,0.651 -9.418,0.624 -9.806,0.743 -11.207,3.451 -1.219,2.357 -1.904,2.715 -4.287,2.238 -1.72,-0.344 -4.091,0.083 -6.026,1.083 -4.228,2.187 -6.174,1.429 -2.624,-1.021 2.804,-1.935 6.011,-4.94 8.207,-7.691 0.844,-1.057 2.418,-1.333 5.563,-0.979 3.892,0.439 4.629,0.186 6.536,-2.24 3.595,-4.57 2.994,-4.958 -7.779,-5.019 -5.46,-0.031 -10.275,-0.417 -10.697,-0.858 -0.423,-0.44 0.554,-1.757 2.17,-2.925 7.773,-5.618 8.961,-8.137 5.484,-11.616 -2.673,-2.673 -1.706,-3.945 2.999,-3.945 5.227,0 6.813,-0.755 8.518,-4.052 2.109,-4.078 1.797,-6.628 -1.037,-8.484 -2.08,-1.363 -2.451,-2.308 -2.239,-5.71 0.307,-4.928 -1.804,-5.912 -5.85,-2.729 -2.757,2.169 -6.796,2.736 -7.81,1.097 -0.329,-0.532 0.139,-2.092 1.04,-3.467 1.353,-2.065 1.439,-3.063 0.496,-5.751 -1.011,-2.881 -0.909,-3.407 0.892,-4.618 3.624,-2.434 1.942,-6.19 -1.859,-4.155 -1.069,0.571 -2.228,1.937 -2.575,3.032 -0.863,2.719 -1.789,2.5 -3.151,-0.746 -2.434,-5.797 -2.417,-6.779 0.157,-9.198 2.845,-2.674 3.492,-7.972 0.974,-7.972 -1.963,0 -17.888,9.703 -25.737,15.682 -23.238,17.698 -39.69,37.313 -52.799,62.948 -13.171,25.754 -19.451,52.231 -19.451,82 0,42.279 13.741,80.944 40.58,114.183 10.201,12.633 31.244,31.5 40.898,36.669 4.317,2.31 3.266,0.222 -1.785,-3.55 -2.783,-2.078 -5.06,-4.331 -5.06,-5.006 0,-0.675 1.12,-3.334 2.488,-5.907 1.368,-2.574 2.49,-5.398 2.492,-6.273 0.006,-2.454 3.769,-8.064 5.408,-8.064 0.803,0 2.23,1.623 3.172,3.606 1.087,2.293 2.904,4.105 4.99,4.977 3.876,1.619 12.051,1.794 15.879,0.338 2.086,-0.793 3.493,-0.662 6.082,0.567 2.238,1.063 4.425,1.365 6.517,0.906 4.739,-1.041 10.532,-4.35 11.178,-6.384 0.315,-0.991 1.789,-2.06 3.276,-2.373 1.487,-0.313 4.172,-0.862 5.966,-1.221 1.794,-0.359 3.709,-1.489 4.257,-2.513 1.58,-2.953 9.431,-5.947 17.199,-6.56 5.387,-0.424 7.911,-1.146 10.346,-2.96 1.771,-1.32 4.234,-2.288 5.473,-2.152 1.239,0.136 4.819,-0.12 7.954,-0.569 4.883,-0.7 6.282,-0.514 9.767,1.303 3.885,2.026 4.273,2.051 8.704,0.546 2.551,-0.867 5.113,-1.97 5.693,-2.452 1.093,-0.905 11.164,-0.589 17.588,0.556 4.077,0.726 12.794,-1.681 14.787,-4.084 2.196,-2.647 5.823,-1.726 8.047,2.046 2.354,3.989 3.78,4.318 6.357,1.47 1.245,-1.377 2.146,-1.691 2.843,-0.994 0.697,0.696 -0.146,2.217 -2.662,4.792 -2.026,2.076 -3.684,4.682 -3.684,5.793 0,1.109 1.566,3.85 3.483,6.088 5.183,6.058 4.859,9.677 -1.493,16.693 -2.736,3.022 -4.976,6.132 -4.976,6.911 0,1.773 8.109,8.517 10.244,8.517 4.89,0 1.63,3.438 -8.619,9.091 -7.169,3.946 -5.453,3.535 5.956,-1.436 l 0,0 z m 40.556,-57.383 c -1.697,-1.519 -4.828,-3.079 -6.955,-3.469 -2.129,-0.389 -5.741,-1.794 -8.027,-3.122 -2.286,-1.327 -4.861,-2.414 -5.722,-2.414 -0.907,0 -1.564,-0.847 -1.564,-2.017 0,-2.952 4.476,-4.407 9.215,-2.993 3.684,1.096 9.582,0.598 12.853,-1.089 0.917,-0.473 2.563,-0.526 3.658,-0.118 1.96,0.73 1.963,0.805 0.162,4.694 -1.621,3.502 -1.668,4.263 -0.425,6.67 2.996,5.796 1.286,7.862 -3.195,3.858 z m -65.684,-28.679 c -0.678,-0.44 -1.084,-3.501 -1.021,-7.698 0.073,-4.94 -0.434,-8.064 -1.742,-10.735 -2.06,-4.204 -1.904,-4.568 2.662,-6.236 1.768,-0.646 3.954,-1.489 4.857,-1.874 3.224,-1.376 5.15,10.924 3.223,20.587 -0.378,1.899 -1.159,2.737 -2.55,2.737 -1.167,0 -2.222,0.831 -2.524,1.991 -0.558,2.136 -1.135,2.379 -2.905,1.228 l 0,0 z m -60.465,-6.087 c -1.451,-1.604 -1.472,-1.972 -0.176,-3.049 1.819,-1.51 3.551,-0.567 3.551,1.935 0,2.722 -1.479,3.21 -3.375,1.114 z m 62.416,-29.232 c -0.5,-0.685 -1.51,-3.007 -2.242,-5.161 -1.253,-3.676 -1.198,-4.025 0.892,-5.718 1.223,-0.991 2.625,-1.554 3.115,-1.25 1.152,0.712 1.17,13.373 0.019,13.373 -0.481,0 -1.284,-0.56 -1.784,-1.244 l 0,0 z m -177.458,-131.084 c -0.821,-0.552 -2.273,-0.76 -3.228,-0.463 -2.402,0.747 -1.134,-2.462 1.931,-4.889 1.26,-0.997 2.292,-2.765 2.292,-3.927 0,-1.162 1.178,-3.342 2.617,-4.845 2.822,-2.946 2.646,-5.837 -0.355,-5.837 -2.188,0 -4.699,-3.588 -3.171,-4.532 0.571,-0.353 0.899,-2.054 0.728,-3.778 -0.336,-3.378 -0.079,-3.459 6.664,-2.094 2.203,0.446 3.712,0.047 5.682,-1.502 2.342,-1.844 2.542,-2.417 1.581,-4.528 -1.452,-3.188 0.482,-5.907 3.176,-4.466 0.981,0.525 4.743,0.76 8.359,0.521 l 6.573,-0.435 1.488,3.561 c 1.925,4.61 1.875,5.309 -0.381,5.309 -3.061,0 -4.161,2.278 -3.484,7.217 0.411,2.997 0.098,5.985 -0.925,8.855 -0.85,2.383 -1.809,5.563 -2.13,7.069 -0.509,2.38 -1.061,2.737 -4.22,2.737 -1.999,0 -4.341,0.638 -5.205,1.416 -3.734,3.365 -15.398,6.354 -17.992,4.611 z m 184.427,-37.546 c 0.364,-0.364 0.962,-0.364 1.326,0 0.365,0.365 0.066,0.664 -0.664,0.664 -0.729,0 -1.028,-0.299 -0.662,-0.664 l 0,0 z m -11.25,-6.265 c -0.805,-0.51 -1.16,-1.229 -0.789,-1.602 0.911,-0.91 3.745,0.248 3.745,1.531 0,1.266 -1.029,1.289 -2.956,0.071 z m 13.002,-0.006 c -4.994,-1.2 -4.945,-7 0.06,-7 2.193,0 3.118,1.807 2.657,5.196 -0.267,1.957 -0.747,2.275 -2.717,1.804 l 0,0 z m -43.554,-35.232 c -1.547,-1.294 -4.745,-3.333 -7.107,-4.532 -2.361,-1.199 -4.105,-2.716 -3.875,-3.371 0.806,-2.292 23.594,0.087 23.594,2.463 0,1.596 -6.587,7.793 -8.282,7.793 -0.835,0 -2.782,-1.059 -4.33,-2.353 z"
         id="path2519"
         inkscape:connector-curvature="0"
         style="fill:#ca5934" />
      <path
         d="m 302.86063,513.56013 c 0,1.38 -1.479,1.628 -3.375,0.565"
         id="path2521"
         inkscape:connector-curvature="0"
         style="fill:#ca5934" />
      <path
         d="m 292.78663,519.66713 c -0.624,0.438 -1.325,-0.321 -1.598,-1.732"
         id="path2523"
         inkscape:connector-curvature="0"
         style="fill:#ca5934" />
      <g
         transform="translate(5.0716265,25.358132)"
         id="anell_clar">
        <path
           style="fill:#8bc705"
           inkscape:connector-curvature="0"
           id="path2526"
           d="M 272.892,685.259 C 206.299,677.195 155.966,653.028 110.355,607.215 92.087,588.866 79.117,571.918 67.066,550.652 50.333,521.119 38.81,484.853 35.054,449.9 c -1.392,-12.967 -1.384,-43.243 0.015,-55.248 5.668,-48.604 22.494,-91.837 49.962,-128.377 45.628,-60.692 107.674,-96.896 181.837,-106.099 21.487,-2.666 56.893,-1.514 79.165,2.577 10.859,1.995 31.833,7.861 42.867,11.99 17.856,6.683 32.079,13.836 53.451,26.883 24.955,15.233 59.069,50.029 78.492,80.06 24.635,38.085 38.946,85.446 40.307,133.377 2.097,73.863 -25.828,142.884 -78.576,194.227 -23.922,23.283 -43.707,37.417 -70.865,50.625 -23.929,11.638 -47.631,18.997 -75.628,23.479 -14.677,2.351 -50.456,3.407 -63.189,1.865 z m 53.238,-83.991 c 11.223,-1.717 23.571,-4.868 32.177,-8.209 29.455,-11.431 48.696,-23.688 68.081,-43.365 33.842,-34.352 51.507,-77.676 51.49,-126.281 -0.016,-42.334 -12.148,-77.985 -38.5,-113.111 -11.084,-14.777 -30.248,-31.901 -44.026,-39.343 -3.044,-1.645 -6.208,-3.569 -7.033,-4.277 -2.136,-1.837 -17.026,-9.087 -23.703,-11.542 -3.104,-1.142 -7.446,-2.879 -9.646,-3.859 -11.906,-5.31 -36.54,-9.229 -58.195,-9.259 -27.641,-0.039 -49.757,4.744 -73.47,15.892 -5.107,2.399 -9.487,4.363 -9.732,4.363 -1.087,0 -19.161,11.492 -24.661,15.682 -23.238,17.699 -39.69,37.313 -52.799,62.949 -19.262,37.664 -24.475,80.889 -14.877,123.355 10.351,45.8 41.072,87.923 82.446,113.044 21.919,13.311 50.471,22.828 76.176,25.396 10.799,1.077 34.701,0.335 46.272,-1.435 l 0,0 z"
           connector-curvature="0" />
      </g>
      <g
         transform="translate(5.0716265,25.358132)"
         id="anell_fosc">
        <circle
           style="fill:none;stroke:#1b5704;stroke-width:60"
           sodipodi:ry="212.599"
           sodipodi:rx="212.599"
           sodipodi:cy="422.36099"
           sodipodi:cx="297.638"
           d="m 510.237,422.36099 c 0,117.41519 -95.18381,212.599 -212.599,212.599 -117.41518,0 -212.598999,-95.18381 -212.598999,-212.599 0,-117.41518 95.183819,-212.599 212.598999,-212.599 117.41519,0 212.599,95.18382 212.599,212.599 z"
           id="circle2529"
           r="212.599"
           cy="422.36099"
           cx="297.638" />
        <circle
           style="fill:none;stroke:#1b5704;stroke-width:10"
           sodipodi:ry="260.78799"
           sodipodi:rx="260.78799"
           sodipodi:cy="422.362"
           sodipodi:cx="297.638"
           d="m 558.42599,422.362 c 0,144.02923 -116.75876,260.78799 -260.78799,260.78799 -144.02923,0 -260.787994,-116.75876 -260.787994,-260.78799 0,-144.02923 116.758764,-260.78799 260.787994,-260.78799 144.02923,0 260.78799,116.75876 260.78799,260.78799 z"
           id="circle2531"
           r="260.78799"
           cy="422.362"
           cx="297.638" />
      </g>
      <g
         transform="translate(5.0716265,25.358132)"
         id="Text">
        <g
           id="g2534">
          <path
             style="fill:#8bc705;stroke:#ffffff"
             inkscape:connector-curvature="0"
             id="path2536"
             d="m 148.261,279.44 0.093,0.41 c -0.436,1.123 -0.503,1.905 -0.199,2.345 0.303,0.441 1.817,1.61 4.546,3.507 1.317,0.917 2.662,1.761 4.035,2.531 -1.648,6.536 -3.939,11.911 -6.873,16.126 -3.859,5.549 -8.537,8.958 -14.033,10.229 -5.496,1.271 -10.925,0.041 -16.287,-3.69 -6.99,-4.863 -9.865,-11.359 -8.625,-19.49 0.567,-3.722 2.338,-7.723 5.313,-12 1.726,-2.479 3.743,-4.802 6.054,-6.966 1.906,-1.779 3.565,-3.074 4.98,-3.884 l 0.563,0.082 c 1.083,1.352 3.224,3.335 6.419,5.948 l 0.055,0.418 -0.971,1.395 -0.395,0.07 c -0.294,-0.205 -0.924,-0.597 -1.89,-1.176 -0.966,-0.579 -1.666,-0.953 -2.104,-1.118 -1.404,0.035 -3.003,0.647 -4.798,1.837 -1.91,1.292 -3.577,2.961 -5.001,5.007 -3.817,5.486 -4.235,10.818 -1.26,15.994 1.378,2.385 3.415,4.514 6.11,6.391 4.31,2.998 8.68,4.336 13.111,4.016 4.605,-0.337 8.239,-2.421 10.902,-6.25 1.413,-2.03 2.344,-4.292 2.791,-6.788 -1.01,-0.862 -2.459,-1.952 -4.352,-3.268 -1.533,-1.067 -2.502,-1.66 -2.902,-1.778 -0.313,-0.08 -0.695,0.091 -1.148,0.511 -0.385,0.354 -1.412,1.583 -3.082,3.687 l -0.411,0.094 -1.464,-1.019 -0.055,-0.418 c 1.625,-2.203 3.287,-4.543 4.986,-7.018 0.977,-1.437 2.436,-3.584 4.378,-6.442 l 0.394,-0.071 1.12,0.778 z" />
          <path
             style="fill:#8bc705;stroke:#ffffff"
             inkscape:connector-curvature="0"
             id="path2538"
             d="m 178.644,257.972 c 1.564,2.308 3.525,4.737 5.882,7.289 l -0.017,0.4 -15.24,13.842 c -2.525,2.332 -4.27,4.019 -5.232,5.063 l -0.4,-0.016 -0.538,-0.583 -0.126,-0.346 c 0.424,-1.599 0.602,-2.521 0.53,-2.765 -0.118,-0.378 -0.894,-1.371 -2.326,-2.978 l -4.241,-4.719 -9.74,-10.548 c -3.049,-3.301 -5.125,-5.368 -6.228,-6.201 -0.44,-0.338 -0.913,-0.376 -1.418,-0.117 -0.259,0.137 -1.135,0.817 -2.626,2.041 l -0.4,-0.016 -1.307,-1.415 0.035,-0.379 c 1.478,-1.21 3.68,-3.167 6.607,-5.87 2.606,-2.408 7.527,-7.029 14.761,-13.862 l 0.383,-0.045 1.862,2.559 c 0.596,0.813 1.109,1.495 1.541,2.046 l 1.642,2.069 0.003,0.421 -1.207,1.114 -0.4,-0.016 c -1.754,-1.873 -2.858,-2.846 -3.311,-2.917 -0.332,-0.053 -1.218,0.483 -2.658,1.608 -1.441,1.125 -2.669,2.155 -3.682,3.089 -1.206,1.115 -2.382,2.291 -3.527,3.527 1.192,1.598 2.979,3.687 5.363,6.266 l 3.977,4.307 c 1.16,-0.942 2.079,-1.728 2.759,-2.355 l 2.706,-2.537 c 1.264,-1.192 1.89,-1.962 1.877,-2.311 -0.01,-0.454 -0.729,-1.525 -2.158,-3.212 l 0.017,-0.4 1.29,-1.191 0.4,0.016 c 1.379,1.604 2.664,3.052 3.855,4.342 1.294,1.401 2.736,2.908 4.329,4.521 l -0.036,0.379 -1.393,1.287 -0.4,-0.016 c -1.473,-1.595 -2.459,-2.438 -2.955,-2.533 -0.498,-0.092 -1.354,0.331 -2.566,1.271 -0.91,0.713 -1.844,1.51 -2.801,2.394 -1.014,0.935 -1.924,1.841 -2.734,2.717 l 5.86,6.346 c 1.679,1.817 3.339,3.547 4.984,5.189 l 2.829,-2.613 c 4.051,-3.74 6.387,-6.193 7.007,-7.357 0.103,-0.196 0.142,-0.375 0.122,-0.537 -0.041,-0.322 -0.293,-0.86 -0.758,-1.613 l -1.883,-3.041 -0.004,-0.421 1.27,-1.172 0.421,-0.001 z" />
          <path
             style="fill:#8bc705;stroke:#ffffff"
             inkscape:connector-curvature="0"
             id="path2540"
             d="m 213.356,222.898 c 3.533,6.004 4.557,11.744 3.07,17.22 -1.448,5.321 -5.116,9.714 -11.006,13.18 -5.566,3.276 -10.855,4.281 -15.873,3.016 -5.016,-1.265 -9.166,-4.688 -12.451,-10.27 -4.605,-7.826 -4.809,-15.001 -0.609,-21.526 1.913,-2.966 4.855,-5.618 8.824,-7.954 5.68,-3.342 10.973,-4.453 15.883,-3.333 4.987,1.141 9.041,4.363 12.162,9.667 z m -6.77,5.693 c -2.776,-4.719 -5.93,-7.907 -9.458,-9.566 -3.528,-1.658 -7.123,-1.411 -10.784,0.744 -4.833,2.844 -6.759,6.903 -5.78,12.176 0.498,2.708 1.561,5.446 3.189,8.211 2.959,5.028 6.223,8.453 9.792,10.273 3.69,1.881 7.448,1.695 11.272,-0.556 4.638,-2.729 6.408,-6.849 5.313,-12.36 -0.582,-2.921 -1.763,-5.896 -3.544,-8.922 z" />
          <path
             style="fill:#8bc705;stroke:#ffffff"
             inkscape:connector-curvature="0"
             id="path2542"
             d="m 244.211,234.371 -0.144,0.353 c -1.813,0.538 -4.574,1.479 -8.283,2.824 -3.692,1.339 -6.406,2.384 -8.143,3.134 l -0.336,-0.179 -0.647,-1.784 0.169,-0.363 c 1.772,-0.763 2.779,-1.229 3.02,-1.396 0.462,-0.328 0.646,-0.766 0.547,-1.313 -0.232,-1.361 -1.114,-4.154 -2.646,-8.378 l -5.109,-14.083 c -1.531,-4.225 -2.645,-6.934 -3.34,-8.128 -0.275,-0.482 -0.695,-0.701 -1.262,-0.657 -0.292,0.026 -1.362,0.313 -3.211,0.864 l -0.363,-0.17 -0.657,-1.81 0.18,-0.337 c 1.743,-0.511 4.495,-1.449 8.259,-2.813 3.743,-1.359 6.449,-2.4 8.114,-3.125 l 0.354,0.143 0.657,1.81 -0.17,0.363 c -1.772,0.764 -2.777,1.229 -3.018,1.396 -0.465,0.329 -0.647,0.767 -0.549,1.313 0.232,1.362 1.115,4.155 2.646,8.379 l 5.109,14.083 c 1.532,4.224 2.645,6.934 3.339,8.128 0.275,0.483 0.696,0.702 1.263,0.656 0.293,-0.025 1.362,-0.313 3.213,-0.864 l 0.361,0.17 0.647,1.784 z" />
          <path
             style="fill:#8bc705;stroke:#ffffff"
             inkscape:connector-curvature="0"
             id="path2544"
             d="m 284.122,188.167 -0.262,0.33 c -1.883,0.424 -2.957,0.697 -3.225,0.817 -0.516,0.239 -0.775,0.635 -0.779,1.19 -0.021,1.381 0.332,4.29 1.063,8.723 l 1.867,11.345 c 1.376,8.365 2.395,13.794 3.053,16.288 l -0.322,0.312 c -2.163,-0.008 -3.797,0.003 -4.901,0.031 -5.916,-4.786 -16.122,-13.61 -30.618,-26.475 l 3.006,18.276 c 0.73,4.433 1.326,7.301 1.79,8.603 0.182,0.524 0.555,0.818 1.12,0.878 0.292,0.028 1.396,-0.059 3.315,-0.259 l 0.325,0.234 0.313,1.899 -0.237,0.297 c -2.161,0.242 -4.164,0.513 -6.009,0.817 -2.143,0.353 -4.285,0.763 -6.426,1.229 l -0.322,-0.205 -0.313,-1.901 0.234,-0.325 c 1.881,-0.425 2.956,-0.697 3.223,-0.817 0.516,-0.238 0.775,-0.634 0.78,-1.19 0.021,-1.381 -0.333,-4.289 -1.063,-8.722 l -2.432,-14.783 c -0.729,-4.434 -1.326,-7.302 -1.789,-8.603 -0.183,-0.525 -0.557,-0.817 -1.121,-0.878 -0.291,-0.028 -1.396,0.057 -3.314,0.258 l -0.326,-0.233 -0.313,-1.9 0.238,-0.298 c 1.789,-0.18 3.482,-0.401 5.086,-0.665 2.515,-0.414 4.591,-0.813 6.231,-1.197 8.178,7.838 17.636,16.127 28.372,24.864 l -2.689,-16.347 c -0.729,-4.434 -1.326,-7.302 -1.789,-8.604 -0.182,-0.525 -0.555,-0.817 -1.12,-0.877 -0.291,-0.029 -1.396,0.057 -3.315,0.258 l -0.325,-0.233 -0.313,-1.901 0.237,-0.297 c 2.105,-0.232 4.099,-0.502 5.98,-0.812 2.402,-0.396 4.555,-0.807 6.455,-1.235 l 0.32,0.206 0.315,1.902 z" />
          <path
             style="fill:#8bc705;stroke:#ffffff"
             inkscape:connector-curvature="0"
             id="path2546"
             d="m 337.155,208.36 c -0.383,4.382 -1.576,8.163 -3.578,11.343 -2.067,3.269 -4.844,5.655 -8.33,7.161 -3.486,1.504 -7.542,2.056 -12.17,1.651 -0.582,-0.051 -1.174,-0.122 -1.771,-0.212 1.631,0.427 4.451,1.555 8.46,3.383 l 4.265,1.937 c 2.279,1.033 4.124,1.611 5.535,1.734 0.959,0.084 2.464,-0.221 4.514,-0.913 l 0.261,0.278 -0.133,1.523 -0.261,0.375 c -3.623,1.768 -5.648,2.832 -6.078,3.193 -1.787,-0.156 -5.299,-1.288 -10.535,-3.395 -5.291,-2.13 -8.717,-3.264 -10.277,-3.4 -0.903,-0.079 -2.742,0.585 -5.519,1.991 l -0.411,-0.178 -0.338,-1.337 0.149,-0.413 c 0.407,-0.325 1.368,-0.914 2.884,-1.767 2.73,-1.543 4.918,-2.603 6.561,-3.179 -5.402,-0.852 -9.55,-3.166 -12.441,-6.944 -3.029,-3.941 -4.278,-8.949 -3.747,-15.025 0.573,-6.563 2.952,-11.563 7.138,-14.998 4.186,-3.433 9.738,-4.848 16.66,-4.243 8.465,0.739 14.252,4.126 17.363,10.159 1.586,3.08 2.188,6.836 1.799,11.276 z m -8.817,0.707 c 0.477,-5.455 -0.241,-9.881 -2.151,-13.279 -1.911,-3.398 -4.982,-5.283 -9.215,-5.652 -5.586,-0.488 -9.511,1.699 -11.773,6.561 -1.166,2.495 -1.889,5.341 -2.168,8.539 -0.508,5.812 0.163,10.495 2.013,14.05 1.915,3.673 5.083,5.702 9.504,6.089 5.36,0.469 9.192,-1.859 11.498,-6.983 1.221,-2.719 1.986,-5.827 2.292,-9.325 z" />
          <path
             style="fill:#8bc705;stroke:#ffffff"
             inkscape:connector-curvature="0"
             id="path2548"
             d="m 389.289,207.492 -0.36,0.177 c -2.108,-0.719 -3.488,-0.562 -4.141,0.474 -0.357,0.577 -0.927,1.898 -1.711,3.964 -0.584,1.537 -1.375,3.77 -2.374,6.7 l -2.815,8.256 c -1.809,5.308 -4.146,8.74 -7.012,10.296 -3.793,2.058 -8.254,2.212 -13.383,0.464 -4.682,-1.597 -8.07,-3.62 -10.168,-6.071 -1.766,-2.077 -2.572,-4.447 -2.423,-7.11 0.101,-1.7 1.269,-5.83 3.507,-12.389 l 2.357,-6.916 c 1.449,-4.252 2.277,-7.063 2.484,-8.428 0.087,-0.548 -0.104,-0.982 -0.573,-1.302 -0.244,-0.163 -1.259,-0.609 -3.045,-1.337 l -0.177,-0.36 0.613,-1.796 0.358,-0.177 c 1.679,0.692 4.412,1.684 8.202,2.976 3.859,1.316 6.62,2.197 8.283,2.645 l 0.176,0.36 -0.611,1.796 -0.359,0.177 c -1.859,-0.515 -2.935,-0.781 -3.227,-0.802 -0.568,-0.033 -0.985,0.194 -1.25,0.681 -0.672,1.208 -1.732,3.938 -3.183,8.191 l -1.883,5.521 c -2.303,6.755 -3.409,10.996 -3.32,12.721 0.192,3.417 2.674,5.939 7.444,7.565 3.127,1.066 5.828,1.13 8.104,0.19 1.072,-0.453 1.896,-1 2.475,-1.64 0.577,-0.64 1.223,-1.717 1.939,-3.229 0.66,-1.41 1.246,-2.866 1.758,-4.368 l 1.9,-5.575 c 1.597,-4.682 2.67,-7.887 3.219,-9.615 0.512,-1.62 0.762,-2.702 0.748,-3.246 -0.021,-0.406 -0.24,-0.79 -0.655,-1.151 -0.356,-0.301 -1.409,-0.81 -3.16,-1.526 l -0.177,-0.36 0.613,-1.796 0.358,-0.177 c 1.519,0.638 3.1,1.236 4.743,1.797 1.233,0.421 3.619,1.174 7.158,2.261 l 0.178,0.359 -0.61,1.8 z" />
          <path
             style="fill:#8bc705;stroke:#ffffff"
             inkscape:connector-curvature="0"
             id="path2550"
             d="m 394.39,253.667 -0.359,0.124 c -1.598,-1.012 -4.124,-2.472 -7.578,-4.38 -3.438,-1.899 -6.01,-3.255 -7.717,-4.069 l -0.086,-0.372 0.918,-1.661 0.385,-0.111 c 1.739,0.833 2.752,1.284 3.037,1.355 0.552,0.132 1.001,-0.018 1.349,-0.452 0.872,-1.071 2.396,-3.573 4.567,-7.506 l 7.244,-13.113 c 2.174,-3.933 3.48,-6.555 3.924,-7.863 0.182,-0.525 0.07,-0.986 -0.336,-1.383 -0.211,-0.203 -1.133,-0.82 -2.764,-1.85 l -0.111,-0.385 0.932,-1.685 0.371,-0.087 c 1.531,0.976 4.049,2.431 7.553,4.367 3.487,1.926 6.052,3.277 7.693,4.055 l 0.124,0.36 -0.931,1.686 -0.386,0.111 c -1.739,-0.833 -2.753,-1.284 -3.037,-1.354 -0.552,-0.133 -1.003,0.018 -1.35,0.451 -0.872,1.071 -2.395,3.574 -4.567,7.507 l -7.244,13.114 c -2.174,3.933 -3.481,6.554 -3.924,7.862 -0.182,0.525 -0.07,0.986 0.336,1.383 0.212,0.203 1.133,0.82 2.764,1.85 l 0.111,0.385 -0.918,1.661 z" />
          <path
             style="fill:#8bc705;stroke:#ffffff"
             inkscape:connector-curvature="0"
             id="path2552"
             d="m 427.313,266.313 c -2.011,1.931 -4.075,4.273 -6.194,7.026 l -0.397,0.051 -16.212,-12.692 c -2.724,-2.096 -4.68,-3.531 -5.87,-4.305 l -0.053,-0.397 0.484,-0.628 0.318,-0.183 c 1.648,0.148 2.587,0.168 2.815,0.058 0.353,-0.181 1.2,-1.113 2.544,-2.795 l 3.937,-4.975 8.757,-11.378 c 2.74,-3.561 4.429,-5.956 5.063,-7.182 0.259,-0.492 0.218,-0.964 -0.124,-1.417 -0.178,-0.233 -0.996,-0.982 -2.453,-2.247 l -0.052,-0.396 1.175,-1.526 0.38,-0.029 c 1.442,1.252 3.741,3.094 6.898,5.524 2.813,2.165 8.196,6.236 16.149,12.216 l 0.109,0.369 -2.209,2.267 c -0.7,0.725 -1.286,1.346 -1.757,1.865 l -1.764,1.966 -0.413,0.074 -1.302,-1.002 -0.053,-0.396 c 1.551,-2.047 2.323,-3.299 2.318,-3.755 -0.003,-0.336 -0.681,-1.12 -2.032,-2.351 -1.351,-1.231 -2.574,-2.267 -3.666,-3.107 -1.302,-1.002 -2.659,-1.963 -4.07,-2.883 -1.375,1.444 -3.132,3.558 -5.274,6.341 l -3.575,4.645 c 1.124,0.984 2.054,1.759 2.785,2.324 l 2.959,2.24 c 1.387,1.044 2.252,1.531 2.593,1.46 0.446,-0.084 1.381,-0.975 2.804,-2.667 l 0.396,-0.051 1.391,1.071 0.053,0.397 c -1.35,1.63 -2.561,3.141 -3.631,4.532 -1.163,1.512 -2.406,3.188 -3.729,5.029 l -0.379,0.029 -1.504,-1.157 -0.051,-0.397 c 1.323,-1.72 1.989,-2.834 1.998,-3.34 0.008,-0.505 -0.553,-1.277 -1.686,-2.314 -0.855,-0.778 -1.798,-1.564 -2.83,-2.358 -1.094,-0.841 -2.139,-1.586 -3.139,-2.237 l -5.269,6.845 c -1.509,1.96 -2.934,3.889 -4.275,5.787 l 3.052,2.349 c 4.369,3.363 7.18,5.252 8.432,5.667 0.211,0.067 0.395,0.077 0.55,0.029 0.312,-0.094 0.798,-0.433 1.464,-1.018 l 2.68,-2.368 0.414,-0.075 1.369,1.054 0.076,0.411 z" />
          <path
             style="fill:#8bc705;stroke:#ffffff"
             inkscape:connector-curvature="0"
             id="path2554"
             d="m 476.687,275.622 c -1.199,0.754 -2.363,1.616 -3.496,2.587 l -3.587,3.082 -0.399,-0.025 -1.18,-1.339 -0.014,-0.402 c 1.75,-1.667 2.746,-2.682 2.982,-3.041 0.416,-0.669 0.35,-1.416 -0.199,-2.239 -0.207,-0.321 -1.357,-1.672 -3.454,-4.053 l -2.508,-2.849 c -0.521,0.409 -2.503,2.128 -5.946,5.16 l -12.074,10.63 c -3.373,2.97 -5.488,4.995 -6.346,6.078 -0.35,0.433 -0.399,0.904 -0.15,1.416 0.13,0.262 0.789,1.153 1.977,2.674 l -0.025,0.399 -1.424,1.254 -0.4,-0.025 c -1.149,-1.478 -3.028,-3.698 -5.636,-6.66 -2.671,-3.032 -4.634,-5.177 -5.892,-6.434 l 0.023,-0.36 1.445,-1.273 0.399,0.026 c 1.356,1.371 2.158,2.137 2.402,2.3 0.474,0.312 0.948,0.321 1.423,0.03 1.182,-0.714 3.46,-2.556 6.832,-5.525 l 12.074,-10.629 c 3.5,-3.081 5.451,-4.837 5.854,-5.266 l -2.676,-3.04 c -2.234,-2.537 -3.615,-3.949 -4.146,-4.236 -0.283,-0.153 -0.527,-0.215 -0.729,-0.188 -0.339,0.073 -0.886,0.366 -1.642,0.879 -0.839,0.563 -1.666,1.178 -2.484,1.849 l -0.4,-0.026 -1.18,-1.338 0.008,-0.421 3.598,-3.243 c 1.008,-0.912 1.988,-1.927 2.942,-3.042 l 0.38,0.003 c 0.595,0.961 3.206,4.07 7.834,9.328 l 7.58,8.608 c 4.268,4.846 7.02,7.831 8.26,8.953 l -0.026,0.398 z" />
          <path
             style="fill:#8bc705;stroke:#ffffff"
             inkscape:connector-curvature="0"
             id="path2556"
             d="m 474.099,322.736 c -2.686,1.577 -5.504,2.203 -8.453,1.878 -2.592,-0.273 -4.963,-1.234 -7.113,-2.884 -1.98,-1.508 -3.779,-3.638 -5.395,-6.389 -2.008,-3.419 -3.197,-7.231 -3.566,-11.438 l 0.365,-0.609 c 2.141,-0.644 4.937,-1.979 8.389,-4.006 l 0.387,0.101 0.918,1.563 -0.115,0.364 -0.562,0.329 c -0.911,0.537 -2.06,1.341 -3.442,2.416 -0.697,1.199 -0.976,2.775 -0.835,4.729 0.146,2.038 0.721,3.912 1.726,5.621 1.893,3.223 4.325,4.794 7.299,4.711 1.529,-0.043 2.912,-0.429 4.148,-1.156 2.084,-1.224 3.063,-2.97 2.935,-5.237 -0.067,-1.122 -0.519,-2.729 -1.354,-4.822 -1.886,-4.739 -2.726,-8.088 -2.519,-10.048 0.315,-2.966 2.076,-5.391 5.284,-7.275 3.337,-1.96 6.659,-2.4 9.964,-1.321 3.479,1.153 6.463,3.846 8.949,8.079 2.238,3.81 3.435,7.245 3.591,10.306 l -0.486,0.516 c -2.167,0.747 -4.633,1.877 -7.399,3.394 l -0.402,-0.126 -0.904,-1.538 0.102,-0.387 c 1.925,-1.196 3.146,-2.024 3.666,-2.481 0.468,-0.954 0.604,-2.216 0.404,-3.785 -0.23,-1.66 -0.771,-3.215 -1.622,-4.663 -1.281,-2.182 -2.873,-3.567 -4.774,-4.159 -1.789,-0.547 -3.547,-0.314 -5.271,0.699 -1.873,1.1 -2.852,2.583 -2.938,4.451 -0.053,1.213 0.621,3.609 2.021,7.187 0.152,0.371 0.549,1.419 1.189,3.145 0.402,1.056 0.687,2.082 0.855,3.078 0.348,2.008 0.13,3.799 -0.652,5.376 -0.859,1.705 -2.322,3.166 -4.39,4.381 z" />
        </g>
        <g
           id="g2558">
          <path
             style="fill:#8bc705;stroke:#ffffff"
             inkscape:connector-curvature="0"
             id="path2560"
             d="m 158.79,599.704 -0.248,0.034 c -0.685,-0.591 -1.493,-1.241 -2.423,-1.952 -0.726,-0.554 -1.437,-1.064 -2.136,-1.529 l -0.008,-0.229 1.426,-1.629 -3.932,-0.002 c -0.307,-0.005 -0.658,-0.131 -1.051,-0.377 -0.158,-0.094 -0.335,-0.216 -0.532,-0.365 -0.948,-0.725 -1.457,-1.566 -1.528,-2.526 -0.071,-0.96 0.278,-1.943 1.048,-2.95 1.016,-1.332 2.16,-1.952 3.429,-1.861 1.376,0.091 3.633,0.949 6.771,2.575 1.036,-1.356 1.373,-2.54 1.007,-3.549 -0.22,-0.614 -0.632,-1.153 -1.239,-1.615 -0.666,-0.509 -1.296,-0.773 -1.888,-0.794 l -1.396,0.819 -0.235,-0.038 -0.536,-0.652 0.047,-0.246 1.218,-1.463 c 2.204,0.034 3.712,0.254 4.525,0.658 0.344,0.168 0.755,0.436 1.233,0.801 1.682,1.284 2.546,2.64 2.591,4.066 0.031,1.039 -0.458,2.219 -1.469,3.543 -0.248,0.323 -0.658,0.834 -1.231,1.532 -0.956,1.163 -1.586,1.944 -1.893,2.347 -0.984,1.288 -1.591,2.127 -1.819,2.514 -0.228,0.386 -0.298,0.688 -0.212,0.9 0.086,0.216 0.421,0.56 1.006,1.033 l 0.021,0.238 -0.546,0.717 z m -2.421,-6.572 2.406,-3.15 c -1.643,-0.77 -2.846,-1.163 -3.607,-1.184 -0.761,-0.021 -1.419,0.332 -1.973,1.057 -0.887,1.162 -0.822,2.131 0.194,2.906 0.861,0.658 1.855,0.781 2.98,0.371 z" />
          <path
             style="fill:#8bc705;stroke:#ffffff"
             inkscape:connector-curvature="0"
             id="path2562"
             d="m 185.02,616.021 -0.229,0.068 c -0.5,-0.377 -1.431,-0.977 -2.792,-1.799 -1.132,-0.682 -1.953,-1.141 -2.464,-1.373 l -0.036,-0.379 c 1.529,-2.201 2.612,-3.826 3.243,-4.875 l 0.758,-1.255 c 0.816,-1.353 1.321,-2.282 1.516,-2.793 0.232,-0.613 0.269,-1.192 0.109,-1.739 -0.158,-0.549 -0.546,-1.008 -1.163,-1.38 -0.689,-0.417 -1.38,-0.57 -2.074,-0.462 -0.694,0.108 -1.22,0.463 -1.581,1.059 l -2.481,4.111 -1.261,2.214 c -0.337,0.6 -0.52,1.017 -0.548,1.25 -0.017,0.153 0.055,0.315 0.214,0.487 0.138,0.146 0.548,0.475 1.229,0.986 l 0.069,0.229 -0.5,0.827 -0.257,0.053 c -1.08,-0.727 -2.189,-1.435 -3.33,-2.123 -1.416,-0.854 -2.647,-1.56 -3.692,-2.115 l -0.06,-0.243 0.492,-0.813 0.238,-0.082 c 0.612,0.293 1.042,0.485 1.292,0.572 0.187,0.063 0.39,-0.003 0.608,-0.198 0.161,-0.141 0.5,-0.632 1.021,-1.473 l 2.717,-4.438 c 0.623,-1.03 0.988,-1.814 1.098,-2.35 0.083,-0.427 0.013,-0.864 -0.206,-1.311 -0.195,-0.405 -0.554,-0.767 -1.078,-1.083 -0.828,-0.499 -1.652,-0.62 -2.472,-0.362 -0.386,0.118 -0.646,0.244 -0.782,0.375 -0.136,0.131 -0.364,0.463 -0.687,0.996 l -1.807,2.994 c -0.355,0.589 -0.798,1.363 -1.328,2.323 -0.546,0.987 -0.848,1.571 -0.904,1.75 -0.062,0.227 0.014,0.45 0.224,0.673 0.211,0.221 0.571,0.492 1.081,0.811 l 0.055,0.223 -0.508,0.84 -0.221,0.055 c -0.749,-0.526 -1.9,-1.259 -3.454,-2.197 -1.646,-0.994 -2.921,-1.719 -3.824,-2.176 l -0.055,-0.222 0.508,-0.841 0.221,-0.055 c 0.9,0.504 1.489,0.766 1.767,0.783 0.234,0.028 0.468,-0.131 0.703,-0.479 0.787,-1.156 1.593,-2.42 2.42,-3.79 L 168,595.32 c 1.109,-1.84 1.679,-2.938 1.708,-3.297 0.019,-0.24 -0.109,-0.475 -0.385,-0.703 -0.099,-0.086 -0.485,-0.35 -1.159,-0.794 l -0.054,-0.221 0.466,-0.772 0.229,-0.068 c 1.75,0.842 3.723,1.512 5.92,2.011 l 0.195,0.362 -1.352,2.177 3.654,-0.505 c 0.573,0.07 1.168,0.291 1.784,0.662 1.058,0.639 1.776,1.309 2.158,2.008 0.38,0.701 0.489,1.592 0.325,2.672 l 3.735,-0.512 c 0.578,0.061 1.188,0.285 1.833,0.674 1.775,1.072 2.618,2.459 2.53,4.162 -0.04,0.754 -0.416,1.72 -1.126,2.896 -0.294,0.486 -0.518,0.848 -0.671,1.082 l -0.33,0.516 c -0.285,0.43 -0.471,0.719 -0.561,0.865 l -1.083,1.794 c -0.839,1.389 -1.35,2.288 -1.534,2.697 -0.184,0.409 -0.224,0.714 -0.12,0.915 0.105,0.201 0.538,0.545 1.3,1.029 l 0.046,0.234 -0.488,0.817 z" />
          <path
             style="fill:#8bc705;stroke:#ffffff"
             inkscape:connector-curvature="0"
             id="path2564"
             d="m 207.73,616.36 c -0.82,1.763 -1.947,3.093 -3.383,3.989 -0.618,0.388 -1.125,0.626 -1.522,0.714 -0.396,0.09 -1.221,0.244 -2.474,0.467 -0.273,0.051 -1.004,0.186 -2.195,0.402 -0.621,0.113 -1.259,0.096 -1.912,-0.054 -0.407,-0.095 -0.839,-0.247 -1.296,-0.461 -1.15,-0.534 -2.184,-1.507 -3.104,-2.918 l -1.868,0.465 -0.55,-0.54 c 1.625,-3.011 2.972,-5.666 4.041,-7.965 l 2.669,-5.743 c 0.235,-0.506 0.758,-1.696 1.57,-3.569 0.23,-0.521 0.422,-0.996 0.573,-1.423 0.186,-0.529 0.066,-0.946 -0.36,-1.251 -0.098,-0.07 -0.491,-0.282 -1.179,-0.637 l -0.071,-0.229 0.373,-0.805 0.222,-0.092 c 1.951,0.67 4.023,1.141 6.217,1.415 l 0.241,0.325 c -1.82,3.584 -3.195,6.375 -4.124,8.373 l -0.719,1.547 2.454,-0.652 c 1.216,-0.324 2.395,-0.221 3.534,0.31 2.357,1.095 3.555,2.788 3.591,5.081 0.018,1.085 -0.225,2.169 -0.728,3.251 z m -4.515,-0.109 c 0.666,-1.432 0.868,-2.729 0.609,-3.893 -0.259,-1.162 -0.943,-2.002 -2.055,-2.518 -0.642,-0.299 -1.341,-0.416 -2.093,-0.352 -0.627,0.051 -1.14,0.211 -1.536,0.477 l -3.206,6.896 c 0.229,1.422 0.985,2.43 2.271,3.027 1.149,0.535 2.266,0.449 3.351,-0.254 1.035,-0.666 1.92,-1.795 2.659,-3.383 z" />
          <path
             style="fill:#8bc705;stroke:#ffffff"
             inkscape:connector-curvature="0"
             id="path2566"
             d="m 224.054,632.124 -0.205,0.1 c -0.942,-0.402 -2.322,-0.916 -4.14,-1.539 -1.819,-0.623 -3.219,-1.064 -4.198,-1.32 l -0.1,-0.205 0.319,-0.93 0.205,-0.1 c 0.985,0.304 1.616,0.435 1.892,0.393 0.234,-0.021 0.43,-0.227 0.586,-0.615 0.523,-1.297 1.352,-3.597 2.485,-6.899 l 1.751,-5.106 c 0.732,-2.133 1.289,-3.873 1.671,-5.218 0.108,-0.384 0.082,-0.668 -0.082,-0.854 -0.163,-0.188 -0.727,-0.463 -1.691,-0.828 l -0.095,-0.219 0.288,-0.839 0.208,-0.115 c 2.034,0.46 4.146,0.712 6.333,0.758 l 0.257,0.293 c -0.094,0.274 -0.283,0.772 -0.563,1.493 -0.935,2.393 -1.907,5.063 -2.918,8.01 l -1.349,3.934 c -1.133,3.303 -1.891,5.626 -2.272,6.971 -0.116,0.404 -0.088,0.686 0.084,0.847 0.191,0.202 0.77,0.486 1.735,0.851 l 0.116,0.211 -0.317,0.926 z" />
          <path
             style="fill:#8bc705;stroke:#ffffff"
             inkscape:connector-curvature="0"
             id="path2568"
             d="m 239.728,613.189 c -2.23,2.591 -4.492,4.819 -6.788,6.687 l -2.342,0.252 -0.312,-0.597 c 2.246,-2.53 3.793,-4.897 4.643,-7.099 1.064,0.111 2.556,0.181 4.475,0.208 l 0.324,0.549 z" />
          <path
             style="fill:#8bc705;stroke:#ffffff"
             inkscape:connector-curvature="0"
             id="path2570"
             d="m 250.396,639.021 -0.213,0.133 c -0.866,-0.259 -1.87,-0.521 -3.009,-0.787 -0.89,-0.209 -1.748,-0.382 -2.576,-0.52 l -0.102,-0.207 0.633,-2.068 -3.586,1.609 c -0.283,0.121 -0.653,0.15 -1.113,0.088 -0.183,-0.021 -0.395,-0.06 -0.635,-0.115 -1.162,-0.273 -1.971,-0.832 -2.429,-1.678 -0.459,-0.846 -0.543,-1.887 -0.254,-3.121 0.382,-1.632 1.17,-2.666 2.365,-3.104 1.292,-0.48 3.703,-0.622 7.232,-0.426 0.389,-1.662 0.209,-2.88 -0.536,-3.65 -0.453,-0.47 -1.051,-0.792 -1.793,-0.965 -0.816,-0.19 -1.499,-0.175 -2.047,0.051 l -0.938,1.319 -0.229,0.063 -0.756,-0.376 -0.059,-0.245 0.512,-1.833 c 2.025,-0.872 3.49,-1.29 4.397,-1.255 0.383,0.013 0.868,0.087 1.454,0.225 2.06,0.481 3.404,1.363 4.03,2.646 0.455,0.935 0.493,2.211 0.113,3.832 -0.093,0.398 -0.257,1.033 -0.495,1.903 -0.395,1.452 -0.65,2.424 -0.764,2.917 -0.37,1.578 -0.58,2.592 -0.628,3.037 -0.05,0.447 0.009,0.75 0.175,0.91 0.167,0.161 0.613,0.337 1.341,0.529 l 0.116,0.209 -0.206,0.879 z m -4.902,-5.004 0.902,-3.858 c -1.814,-0.026 -3.073,0.105 -3.775,0.399 -0.703,0.293 -1.159,0.885 -1.366,1.773 -0.333,1.423 0.123,2.279 1.367,2.57 1.056,0.248 2.014,-0.047 2.872,-0.884 z m 3.983,-13.63 -0.989,0.265 -3.733,-7.244 0.496,-0.348 3.329,1.26 0.944,5.863 -0.047,0.204 z" />
          <path
             style="fill:#8bc705;stroke:#ffffff"
             inkscape:connector-curvature="0"
             id="path2572"
             d="m 271.47,642.411 -0.185,0.15 c -1.158,-0.25 -2.14,-0.436 -2.947,-0.557 -0.744,-0.113 -1.833,-0.239 -3.267,-0.379 l -0.135,-0.184 c 0.548,-2.34 0.919,-4.152 1.113,-5.438 l 0.47,-3.123 c 0.391,-2.592 -0.349,-4.029 -2.218,-4.311 -0.978,-0.147 -1.792,0.072 -2.446,0.658 -0.552,0.493 -0.871,1.025 -0.958,1.6 l -0.45,2.979 c -0.414,2.751 -0.6,4.45 -0.556,5.099 0.028,0.383 0.616,0.674 1.759,0.867 l 0.136,0.183 -0.147,0.972 -0.183,0.137 c -0.894,-0.201 -2.238,-0.436 -4.033,-0.705 -1.902,-0.288 -3.357,-0.469 -4.367,-0.545 l -0.135,-0.184 0.146,-0.973 0.183,-0.135 c 1.025,0.121 1.669,0.138 1.933,0.047 0.227,-0.063 0.381,-0.301 0.466,-0.711 0.282,-1.37 0.543,-2.847 0.782,-4.43 l 0.343,-2.278 c 0.319,-2.124 0.424,-3.357 0.313,-3.7 -0.074,-0.229 -0.283,-0.396 -0.625,-0.502 -0.125,-0.04 -0.583,-0.137 -1.375,-0.289 l -0.136,-0.184 0.135,-0.892 0.186,-0.151 c 1.939,0.107 4.019,-0.03 6.238,-0.412 l 0.319,0.26 -0.436,2.672 3.086,-1.881 c 0.745,-0.182 1.536,-0.209 2.375,-0.082 1.689,0.254 2.876,0.955 3.562,2.102 0.554,0.931 0.711,2.197 0.469,3.803 -0.027,0.18 -0.16,0.914 -0.397,2.203 -0.237,1.291 -0.398,2.212 -0.482,2.764 -0.241,1.604 -0.369,2.631 -0.382,3.08 -0.014,0.448 0.067,0.746 0.24,0.891 0.174,0.146 0.716,0.299 1.626,0.457 l 0.12,0.181 -0.14,0.941 z" />
          <path
             style="fill:#8bc705;stroke:#ffffff"
             inkscape:connector-curvature="0"
             id="path2574"
             d="m 283.168,643.308 -0.174,0.146 c -1.011,-0.157 -2.474,-0.315 -4.391,-0.472 -1.917,-0.157 -3.382,-0.239 -4.394,-0.245 l -0.147,-0.175 0.08,-0.979 0.173,-0.148 c 1.031,0.053 1.674,0.024 1.931,-0.084 0.223,-0.079 0.361,-0.326 0.417,-0.742 0.188,-1.385 0.348,-2.876 0.479,-4.472 l 0.188,-2.296 c 0.17,-2.077 0.19,-3.314 0.062,-3.713 -0.068,-0.223 -0.288,-0.374 -0.658,-0.458 -0.126,-0.032 -0.591,-0.098 -1.39,-0.195 l -0.148,-0.174 0.074,-0.899 0.175,-0.164 c 2.071,-0.014 4.179,-0.288 6.324,-0.824 l 0.32,0.236 c -0.298,1.938 -0.502,3.574 -0.611,4.914 l -0.419,5.123 c -0.065,0.781 -0.116,1.871 -0.154,3.268 -0.013,0.422 0.084,0.688 0.29,0.801 0.235,0.148 0.866,0.281 1.892,0.396 l 0.163,0.176 -0.082,0.98 z m -0.501,-21.139 c -0.056,0.684 -0.345,1.251 -0.866,1.699 -0.522,0.447 -1.12,0.643 -1.794,0.588 -0.686,-0.056 -1.25,-0.348 -1.692,-0.874 -0.441,-0.526 -0.634,-1.132 -0.578,-1.817 0.058,-0.707 0.349,-1.28 0.876,-1.723 0.526,-0.441 1.127,-0.636 1.801,-0.581 0.664,0.055 1.22,0.343 1.667,0.864 0.448,0.522 0.643,1.136 0.586,1.844 z" />
          <path
             style="fill:#8bc705;stroke:#ffffff"
             inkscape:connector-curvature="0"
             id="path2576"
             d="m 313.912,643.623 -0.16,0.179 c -0.623,-0.062 -1.73,-0.087 -3.32,-0.078 -1.32,0.01 -2.261,0.047 -2.818,0.115 l -0.228,-0.305 c 0.155,-2.676 0.229,-4.626 0.222,-5.85 l -0.01,-1.469 c -0.01,-1.578 -0.064,-2.635 -0.163,-3.172 -0.123,-0.645 -0.394,-1.158 -0.815,-1.543 -0.422,-0.383 -0.992,-0.572 -1.711,-0.568 -0.807,0.004 -1.477,0.234 -2.012,0.688 -0.535,0.454 -0.799,1.032 -0.795,1.729 l 0.029,4.802 0.08,2.545 c 0.027,0.688 0.088,1.138 0.186,1.353 0.065,0.139 0.211,0.24 0.438,0.303 0.193,0.054 0.716,0.119 1.564,0.199 l 0.178,0.162 0.006,0.967 -0.191,0.179 c -1.301,-0.058 -2.617,-0.081 -3.949,-0.073 -1.653,0.01 -3.071,0.051 -4.253,0.123 l -0.178,-0.177 -0.005,-0.951 0.16,-0.193 c 0.676,-0.069 1.143,-0.131 1.4,-0.187 0.194,-0.043 0.332,-0.205 0.417,-0.484 0.063,-0.205 0.096,-0.803 0.102,-1.79 v -5.206 c -0.007,-1.201 -0.103,-2.061 -0.289,-2.575 -0.153,-0.407 -0.44,-0.743 -0.86,-1.011 -0.378,-0.244 -0.873,-0.365 -1.485,-0.36 -0.967,0.006 -1.732,0.333 -2.299,0.98 -0.266,0.302 -0.422,0.545 -0.471,0.728 -0.046,0.184 -0.068,0.586 -0.064,1.209 l 0.021,3.496 c 0.004,0.688 0.031,1.579 0.082,2.675 0.049,1.128 0.097,1.782 0.141,1.965 0.065,0.226 0.247,0.378 0.542,0.456 0.296,0.079 0.746,0.121 1.347,0.129 l 0.163,0.16 0.006,0.982 -0.161,0.162 c -0.913,-0.059 -2.278,-0.082 -4.093,-0.07 -1.923,0.011 -3.39,0.058 -4.398,0.139 l -0.162,-0.16 -0.006,-0.982 0.16,-0.162 c 1.031,-0.039 1.67,-0.123 1.916,-0.254 0.214,-0.098 0.331,-0.356 0.351,-0.775 0.066,-1.396 0.095,-2.896 0.084,-4.496 l -0.014,-2.305 c -0.013,-2.148 -0.101,-3.383 -0.264,-3.704 -0.109,-0.214 -0.341,-0.347 -0.696,-0.399 -0.128,-0.02 -0.596,-0.043 -1.402,-0.07 l -0.162,-0.16 -0.005,-0.904 0.16,-0.177 c 1.932,-0.194 3.965,-0.653 6.099,-1.376 l 0.355,0.209 -0.016,2.561 2.854,-2.338 c 0.525,-0.238 1.147,-0.361 1.867,-0.365 1.235,-0.008 2.198,0.188 2.889,0.587 0.689,0.398 1.247,1.103 1.672,2.108 l 2.918,-2.387 c 0.525,-0.25 1.163,-0.377 1.916,-0.382 2.072,-0.013 3.516,0.729 4.331,2.229 0.359,0.664 0.543,1.684 0.552,3.058 0.003,0.569 0,0.994 -0.008,1.273 l -0.014,0.612 c -0.019,0.516 -0.027,0.86 -0.026,1.031 l 0.015,2.095 c 0.01,1.622 0.042,2.656 0.099,3.101 0.057,0.446 0.181,0.729 0.376,0.845 0.193,0.116 0.742,0.183 1.645,0.199 l 0.162,0.177 -0.002,0.948 z" />
          <path
             style="fill:#8bc705;stroke:#ffffff"
             inkscape:connector-curvature="0"
             id="path2578"
             d="m 331.714,641.544 -0.157,0.195 c -0.904,0.041 -1.938,0.124 -3.102,0.247 -0.908,0.097 -1.775,0.216 -2.604,0.356 l -0.162,-0.16 -0.084,-2.162 -2.857,2.7 c -0.227,0.208 -0.567,0.357 -1.021,0.448 -0.18,0.041 -0.392,0.074 -0.639,0.101 -1.186,0.126 -2.134,-0.137 -2.845,-0.784 -0.712,-0.648 -1.134,-1.603 -1.269,-2.863 -0.176,-1.666 0.229,-2.902 1.212,-3.709 1.063,-0.879 3.292,-1.808 6.688,-2.783 -0.18,-1.698 -0.749,-2.789 -1.708,-3.271 -0.581,-0.295 -1.253,-0.401 -2.011,-0.321 -0.832,0.088 -1.472,0.329 -1.916,0.722 l -0.451,1.555 -0.196,0.134 -0.838,-0.105 -0.136,-0.213 -0.119,-1.898 c 1.623,-1.49 2.87,-2.367 3.738,-2.633 0.365,-0.113 0.848,-0.203 1.446,-0.267 2.104,-0.224 3.663,0.168 4.678,1.173 0.736,0.732 1.192,1.926 1.368,3.582 0.043,0.406 0.096,1.06 0.159,1.96 0.104,1.501 0.185,2.503 0.237,3.005 0.17,1.613 0.307,2.639 0.407,3.076 0.1,0.437 0.255,0.705 0.466,0.801 0.211,0.098 0.689,0.117 1.439,0.059 l 0.18,0.159 0.097,0.896 z m -6.276,-3.11 -0.418,-3.942 c -1.722,0.572 -2.867,1.113 -3.434,1.62 -0.566,0.509 -0.803,1.218 -0.707,2.125 0.155,1.453 0.867,2.112 2.139,1.978 1.078,-0.116 1.884,-0.708 2.42,-1.781 z" />
          <path
             style="fill:#8bc705;stroke:#ffffff"
             inkscape:connector-curvature="0"
             id="path2580"
             d="m 351.822,637.903 -0.126,0.191 c -1.016,0.129 -2.465,0.387 -4.349,0.77 -1.885,0.385 -3.314,0.715 -4.288,0.989 l -0.19,-0.126 -0.195,-0.963 0.126,-0.189 c 1.003,-0.238 1.613,-0.443 1.83,-0.62 0.19,-0.138 0.255,-0.414 0.192,-0.829 -0.205,-1.383 -0.467,-2.859 -0.787,-4.427 l -0.459,-2.258 c -0.416,-2.043 -0.742,-3.237 -0.977,-3.583 -0.128,-0.194 -0.381,-0.278 -0.76,-0.258 -0.131,0.006 -0.594,0.073 -1.39,0.201 l -0.19,-0.125 -0.181,-0.885 0.123,-0.205 c 1.985,-0.59 3.933,-1.443 5.844,-2.556 l 0.374,0.138 c 0.252,1.944 0.514,3.574 0.781,4.89 l 1.026,5.036 c 0.156,0.77 0.411,1.829 0.765,3.183 0.104,0.405 0.271,0.636 0.501,0.687 0.267,0.078 0.909,0.029 1.927,-0.146 l 0.206,0.122 0.197,0.963 z m -6.377,-20.16 c 0.137,0.674 0.018,1.299 -0.357,1.875 -0.377,0.574 -0.896,0.93 -1.561,1.064 -0.674,0.137 -1.295,0.016 -1.867,-0.367 -0.57,-0.383 -0.925,-0.91 -1.062,-1.584 -0.142,-0.695 -0.022,-1.328 0.361,-1.899 0.382,-0.571 0.905,-0.925 1.567,-1.06 0.653,-0.133 1.267,-0.012 1.842,0.365 0.577,0.376 0.936,0.911 1.077,1.606 z" />
          <path
             style="fill:#8bc705;stroke:#ffffff"
             inkscape:connector-curvature="0"
             id="path2582"
             d="m 372.451,632.469 -0.109,0.214 c -1.158,0.242 -2.133,0.471 -2.919,0.688 -0.726,0.199 -1.771,0.526 -3.14,0.98 l -0.197,-0.113 c -0.449,-2.36 -0.847,-4.168 -1.191,-5.42 l -0.838,-3.046 c -0.695,-2.527 -1.955,-3.54 -3.777,-3.038 -0.953,0.262 -1.609,0.793 -1.969,1.594 -0.305,0.676 -0.379,1.291 -0.226,1.851 l 0.8,2.905 c 0.737,2.683 1.258,4.311 1.562,4.885 0.183,0.34 0.835,0.365 1.96,0.08 l 0.197,0.111 0.262,0.948 -0.113,0.198 c -0.896,0.18 -2.221,0.51 -3.971,0.992 -1.854,0.51 -3.258,0.936 -4.213,1.275 l -0.197,-0.111 -0.262,-0.948 0.113,-0.198 c 0.986,-0.305 1.58,-0.552 1.785,-0.742 0.182,-0.15 0.227,-0.43 0.137,-0.84 -0.299,-1.365 -0.66,-2.82 -1.084,-4.363 l -0.611,-2.223 c -0.57,-2.071 -0.976,-3.24 -1.217,-3.508 -0.16,-0.18 -0.418,-0.248 -0.775,-0.206 -0.129,0.015 -0.588,0.112 -1.373,0.294 l -0.197,-0.111 -0.24,-0.87 0.109,-0.214 c 1.814,-0.689 3.66,-1.658 5.533,-2.91 l 0.397,0.108 0.688,2.618 2.056,-2.973 c 0.606,-0.467 1.318,-0.814 2.137,-1.039 1.646,-0.453 3.018,-0.295 4.108,0.474 0.886,0.626 1.543,1.721 1.974,3.284 0.049,0.177 0.227,0.902 0.532,2.178 0.305,1.276 0.532,2.182 0.682,2.72 0.431,1.563 0.73,2.554 0.9,2.969 0.171,0.416 0.364,0.655 0.582,0.718 0.218,0.063 0.774,-0.018 1.671,-0.242 l 0.183,0.116 0.251,0.915 z" />
          <path
             style="fill:#8bc705;stroke:#ffffff"
             inkscape:connector-curvature="0"
             id="path2584"
             d="m 395.499,633.267 -0.096,0.207 c -1.53,0.478 -2.813,0.909 -3.851,1.295 -1.086,0.404 -2.617,1.02 -4.591,1.846 l -0.206,-0.094 -0.35,-0.937 0.109,-0.214 c 1.332,-0.609 2.066,-1.025 2.201,-1.248 0.077,-0.132 0.018,-0.459 -0.176,-0.982 l -2.934,-7.883 c -1.039,1.704 -1.769,2.949 -2.186,3.736 -0.328,0.351 -0.795,0.639 -1.398,0.863 -1.752,0.652 -3.361,0.58 -4.826,-0.215 -1.558,-0.831 -2.754,-2.369 -3.59,-4.613 -0.761,-2.045 -0.928,-3.787 -0.502,-5.23 0.145,-0.477 0.588,-1.238 1.334,-2.283 0.821,-1.119 1.625,-2.038 2.413,-2.756 0.487,-0.444 1.059,-0.789 1.713,-1.033 1.399,-0.52 3.048,-0.635 4.944,-0.342 l 1.088,-1.885 0.803,0.08 0.336,1.645 c 0.115,0.555 0.375,1.455 0.782,2.702 0.366,1.136 0.8,2.378 1.302,3.728 l 2.506,6.735 c 0.832,2.235 1.429,3.778 1.791,4.628 0.44,1.029 0.76,1.581 0.959,1.656 0.121,0.046 0.252,0.061 0.395,0.041 0.143,-0.018 0.635,-0.173 1.479,-0.463 l 0.213,0.109 0.338,0.907 z m -10.566,-9.823 -2.585,-6.947 c -1.276,-0.843 -2.604,-1.008 -3.984,-0.494 -2.174,0.809 -2.626,2.92 -1.356,6.333 0.573,1.541 1.323,2.694 2.251,3.46 1.008,0.83 2.105,1.022 3.293,0.58 1.267,-0.472 2.061,-1.449 2.381,-2.932 z" />
          <path
             style="fill:#8bc705;stroke:#ffffff"
             inkscape:connector-curvature="0"
             id="path2586"
             d="m 411.806,616.06 -0.076,0.215 c -1.478,0.644 -2.406,1.057 -2.784,1.236 -0.32,0.152 -0.791,0.391 -1.409,0.715 -0.618,0.324 -1.083,0.561 -1.394,0.709 l -0.173,-0.063 c -0.3,-0.832 -0.622,-1.607 -0.964,-2.324 -0.323,0.617 -0.822,1.844 -1.498,3.676 -0.515,0.541 -1.131,0.983 -1.849,1.326 -1.31,0.623 -2.513,0.758 -3.608,0.405 -1.095,-0.353 -1.961,-1.198 -2.6,-2.537 -0.078,-0.165 -0.235,-0.519 -0.47,-1.062 -0.233,-0.543 -0.47,-1.061 -0.704,-1.557 l -0.887,-1.862 c -0.914,-1.921 -1.518,-3.001 -1.811,-3.242 -0.189,-0.147 -0.455,-0.169 -0.799,-0.065 -0.127,0.035 -0.564,0.215 -1.314,0.535 l -0.215,-0.076 -0.389,-0.813 0.068,-0.229 c 1.775,-1.047 3.461,-2.343 5.058,-3.888 l 0.409,0.037 c 0.641,1.669 1.286,3.188 1.937,4.557 l 1.351,2.837 c 0.633,1.328 1.107,2.215 1.426,2.658 0.374,0.536 0.814,0.867 1.321,0.995 0.507,0.128 1.065,0.046 1.678,-0.245 0.757,-0.359 1.305,-0.918 1.646,-1.676 0.313,-0.744 0.336,-1.432 0.07,-2.067 -0.207,-0.483 -0.339,-0.784 -0.395,-0.901 l -1.238,-2.604 c -0.905,-1.901 -1.51,-2.982 -1.811,-3.242 -0.18,-0.153 -0.441,-0.178 -0.785,-0.074 -0.125,0.037 -0.564,0.215 -1.314,0.537 l -0.229,-0.068 -0.39,-0.816 0.085,-0.236 c 1.765,-1.041 3.449,-2.337 5.056,-3.887 l 0.396,0.044 c 0.566,1.515 1.211,3.034 1.938,4.556 l 2.174,4.57 c 0.975,2.045 1.584,3.178 1.829,3.393 0.123,0.109 0.263,0.15 0.416,0.125 0.265,-0.044 0.797,-0.226 1.596,-0.547 l 0.229,0.069 0.423,0.886 z" />
          <path
             style="fill:#8bc705;stroke:#ffffff"
             inkscape:connector-curvature="0"
             id="path2588"
             d="m 409.873,592.979 c 0.337,0.6 0.414,1.23 0.233,1.893 -0.182,0.664 -0.567,1.16 -1.157,1.492 -0.599,0.338 -1.229,0.412 -1.89,0.224 -0.661,-0.189 -1.159,-0.583 -1.497,-1.183 -0.348,-0.618 -0.428,-1.257 -0.239,-1.918 0.19,-0.661 0.579,-1.158 1.169,-1.489 0.58,-0.327 1.201,-0.399 1.865,-0.218 0.663,0.182 1.168,0.582 1.516,1.199 z m 12.25,17.237 -0.062,0.219 c -0.927,0.435 -2.228,1.124 -3.903,2.066 -1.676,0.943 -2.936,1.694 -3.778,2.256 l -0.22,-0.061 -0.481,-0.857 0.062,-0.221 c 0.883,-0.533 1.399,-0.916 1.553,-1.15 0.139,-0.188 0.115,-0.473 -0.07,-0.848 -0.62,-1.254 -1.322,-2.578 -2.106,-3.973 l -1.13,-2.009 c -1.022,-1.815 -1.698,-2.853 -2.028,-3.11 -0.181,-0.146 -0.448,-0.148 -0.802,-0.012 -0.123,0.045 -0.544,0.25 -1.262,0.617 l -0.219,-0.062 -0.443,-0.786 0.055,-0.234 c 1.707,-1.17 3.301,-2.578 4.779,-4.223 l 0.396,0.016 c 0.837,1.773 1.585,3.244 2.244,4.414 l 2.52,4.48 c 0.386,0.683 0.952,1.615 1.703,2.795 0.224,0.354 0.453,0.521 0.688,0.5 0.279,-0.009 0.876,-0.252 1.791,-0.729 l 0.233,0.054 0.48,0.858 z" />
          <path
             style="fill:#8bc705;stroke:#ffffff"
             inkscape:connector-curvature="0"
             id="path2590"
             d="m 431.711,593.524 c 0.1,0.154 0.243,0.387 0.432,0.699 l -0.025,0.285 c -0.982,1.094 -2.457,2.275 -4.426,3.545 -0.352,0.229 -0.881,0.578 -1.584,1.051 -0.704,0.475 -1.237,0.828 -1.598,1.061 0.91,1.291 2.027,2.123 3.355,2.495 1.402,0.411 2.748,0.2 4.039,-0.632 0.867,-0.559 1.705,-1.521 2.512,-2.885 l 0.578,0.183 0.27,1.726 c -0.777,1.689 -1.938,3.031 -3.48,4.027 -2.031,1.311 -3.978,1.754 -5.842,1.334 -1.863,-0.422 -3.479,-1.693 -4.848,-3.814 -1.625,-2.52 -2.137,-4.63 -1.536,-6.334 0.834,-2.353 1.996,-4.01 3.485,-4.972 1.615,-1.042 3.165,-1.384 4.65,-1.024 1.52,0.374 2.86,1.46 4.018,3.255 z m -3.761,1.928 c -1.571,-2.438 -3.116,-3.166 -4.633,-2.188 -1.599,1.029 -1.616,2.756 -0.056,5.175 l 0.191,0.298 c 0.576,-0.257 1.533,-0.816 2.868,-1.678 0.695,-0.448 1.292,-0.892 1.79,-1.327 -0.071,-0.132 -0.126,-0.225 -0.16,-0.28 z" />
          <path
             style="fill:#8bc705;stroke:#ffffff"
             inkscape:connector-curvature="0"
             id="path2592"
             d="m 445.654,591.876 c -0.01,0.113 -0.063,0.433 -0.158,0.956 -0.154,0.859 -0.268,1.622 -0.338,2.288 -0.323,0.449 -0.701,0.834 -1.134,1.151 -1.204,0.884 -2.341,1.179 -3.409,0.885 -0.456,-0.132 -0.869,-0.368 -1.24,-0.708 -0.436,-0.414 -0.933,-1.008 -1.49,-1.785 l -2.24,-3.133 -2.385,-3.246 -0.35,0.258 -0.67,0.531 -0.533,0.391 -0.229,-0.012 -0.248,-0.338 -0.039,-0.271 c 0.08,-0.22 0.207,-0.552 0.383,-1.002 0.213,-0.528 0.357,-0.948 0.436,-1.259 l -1.297,-1.766 c -0.54,-0.736 -1.148,-1.49 -1.82,-2.263 0.496,-0.685 0.887,-1.255 1.172,-1.71 0.285,-0.457 0.662,-1.136 1.131,-2.04 l 0.527,0.011 c 0.686,1.15 1.318,2.166 1.897,3.046 l 1.534,2.332 0.428,-0.313 c 0.943,-0.693 1.736,-1.321 2.375,-1.885 l 0.248,0.037 0.934,1.654 -0.033,0.225 -2.703,1.984 3.234,4.402 c 1.036,1.411 1.664,2.229 1.883,2.455 0.311,0.332 0.68,0.514 1.11,0.545 0.429,0.031 0.869,-0.119 1.319,-0.449 0.354,-0.262 0.714,-0.671 1.076,-1.23 l 0.629,0.259 z" />
          <path
             style="fill:#8bc705;stroke:#ffffff"
             inkscape:connector-curvature="0"
             id="path2594"
             d="m 459.873,582.823 -0.023,0.25 c -0.728,0.535 -1.541,1.178 -2.441,1.926 -0.702,0.585 -1.358,1.165 -1.969,1.742 l -0.223,-0.043 -1.271,-1.752 -0.878,3.832 c -0.073,0.299 -0.273,0.611 -0.602,0.939 -0.126,0.135 -0.284,0.279 -0.475,0.438 -0.916,0.762 -1.85,1.072 -2.803,0.928 -0.951,-0.145 -1.832,-0.705 -2.643,-1.68 -1.072,-1.287 -1.422,-2.539 -1.051,-3.757 0.396,-1.321 1.735,-3.331 4.02,-6.026 -1.094,-1.314 -2.172,-1.904 -3.236,-1.773 -0.648,0.078 -1.266,0.36 -1.852,0.848 -0.644,0.537 -1.042,1.092 -1.193,1.664 l 0.488,1.545 -0.09,0.221 -0.755,0.376 -0.231,-0.101 -1.154,-1.514 c 0.524,-2.142 1.074,-3.563 1.649,-4.266 0.241,-0.297 0.593,-0.64 1.056,-1.023 1.627,-1.354 3.141,-1.894 4.541,-1.621 1.02,0.201 2.062,0.941 3.127,2.221 0.262,0.314 0.668,0.828 1.221,1.542 0.921,1.19 1.542,1.979 1.865,2.368 1.037,1.246 1.719,2.025 2.045,2.333 0.327,0.308 0.604,0.444 0.832,0.408 0.228,-0.036 0.639,-0.287 1.23,-0.751 l 0.237,0.033 0.579,0.693 z m -6.947,0.897 -2.535,-3.047 c -1.115,1.43 -1.768,2.515 -1.957,3.252 -0.189,0.738 0.008,1.457 0.592,2.16 0.934,1.123 1.893,1.275 2.875,0.457 0.833,-0.693 1.175,-1.635 1.025,-2.822 z" />
        </g>
      </g>
    </g>
  </g>
</svg>
